<svg xmlns="http://www.w3.org/2000/svg" viewBox="0 0 512 512">
  <defs>
    <linearGradient id="bg" x1="0%" y1="0%" x2="100%" y2="100%">
      <stop offset="0%" style="stop-color:#7A4A00"/>
      <stop offset="100%" style="stop-color:#4A2C00"/>
    </linearGradient>
    <linearGradient id="plate" x1="0%" y1="0%" x2="100%" y2="100%">
      <stop offset="0%" style="stop-color:#FFFBF2"/>
      <stop offset="100%" style="stop-color:#F5F0E8"/>
    </linearGradient>
  </defs>

  <!-- Background rounded square -->
  <rect width="512" height="512" rx="115" ry="115" fill="url(#bg)"/>
  <rect width="512" height="512" rx="115" ry="115" fill="#C07A00" opacity="0.28"/>

  <!-- Plate -->
  <circle cx="256" cy="240" r="145" fill="#C08820" opacity="0.15"/>
  <circle cx="256" cy="240" r="130" fill="url(#plate)" opacity="0.95"/>
  <circle cx="256" cy="240" r="108" fill="none" stroke="#E0C870" stroke-width="2" opacity="0.7"/>

  <!-- Fork (left) -->
  <g transform="translate(190, 130)" fill="#C08820">
    <rect x="12" y="85" width="8" height="90" rx="4"/>
    <rect x="4"  y="20" width="4" height="55" rx="2"/>
    <rect x="10" y="20" width="4" height="55" rx="2"/>
    <rect x="16" y="20" width="4" height="55" rx="2"/>
    <rect x="22" y="20" width="4" height="55" rx="2"/>
    <path d="M4,72 Q4,85 12,85 Q20,85 28,72" fill="#C08820"/>
  </g>

  <!-- Knife (right) -->
  <g transform="translate(310, 130)" fill="#C08820">
    <rect x="9" y="85" width="8" height="90" rx="4"/>
    <path d="M9,20 L9,75 Q9,85 13,85 Q17,85 17,75 L21,20 Q17,15 13,15 Z" fill="#C08820"/>
  </g>

  <!-- Central olive branch -->
  <g transform="translate(256,210)">
    <path d="M0,-55 C-5,-20 5,20 0,55" stroke="#D8A830" stroke-width="4" fill="none" stroke-linecap="round"/>
    <ellipse cx="-18" cy="-30" rx="14" ry="7" fill="#C89820" transform="rotate(-35,-18,-30)"/>
    <ellipse cx="18"  cy="-20" rx="14" ry="7" fill="#D8A830" transform="rotate(35,18,-20)"/>
    <ellipse cx="-16" cy="0"   rx="14" ry="7" fill="#C89820" transform="rotate(-25,-16,0)"/>
    <ellipse cx="16"  cy="10"  rx="14" ry="7" fill="#D8A830" transform="rotate(25,16,10)"/>
    <ellipse cx="-14" cy="30"  rx="13" ry="6" fill="#C89820" transform="rotate(-20,-14,30)"/>
    <ellipse cx="14"  cy="38"  rx="13" ry="6" fill="#D8A830" transform="rotate(20,14,38)"/>
    <circle cx="-22" cy="-35" r="7" fill="#7A4A00"/>
    <circle cx="22"  cy="-25" r="7" fill="#9A6200"/>
    <circle cx="-20" cy="4"   r="6" fill="#7A4A00"/>
    <circle cx="20"  cy="14"  r="6" fill="#9A6200"/>
  </g>

  <!-- App name text -->
  <text x="256" y="430"
        font-family="Georgia, serif"
        font-size="52"
        font-weight="bold"
        fill="#FFFFFF"
        text-anchor="middle"
        letter-spacing="2">Food</text>
  <text x="256" y="480"
        font-family="Georgia, serif"
        font-size="36"
        fill="#F5D870"
        text-anchor="middle"
        letter-spacing="4">Daily</text>
</svg>
